<mxfile host="app.diagrams.net" modified="2024-05-06T14:27:37.272Z" agent="Mozilla/5.0 (X11; Ubuntu; Linux x86_64; rv:125.0) Gecko/20100101 Firefox/125.0" etag="3LxVbMOOE71ZWVk5RLcC" version="23.1.7" type="github">
  <diagram name="Page-1" id="lT_XnsOiWLXvnLk_spTY">
    <mxGraphModel dx="1434" dy="740" grid="1" gridSize="10" guides="1" tooltips="1" connect="1" arrows="1" fold="1" page="1" pageScale="1" pageWidth="827" pageHeight="1169" math="0" shadow="0">
      <root>
        <mxCell id="0" />
        <mxCell id="1" parent="0" />
      </root>
    </mxGraphModel>
  </diagram>
</mxfile>
